<svg id="Layer_1" data-name="Layer 1" xmlns="http://www.w3.org/2000/svg" viewBox="0 0 415.23 100.64"><defs><style>.cls-1{fill:#828187;}.cls-2{fill:#fff;}.cls-3{fill:#a7a5ab;}</style></defs><title>logo</title><rect class="cls-1" x="5.46" y="5.12" width="13.4" height="94.85"/><rect class="cls-1" x="21.26" y="-11.68" width="13.4" height="45" transform="translate(38.78 -17.15) rotate(90)"/><rect class="cls-1" x="21.26" y="23.34" width="13.4" height="45" transform="translate(73.8 17.88) rotate(90)"/><rect class="cls-1" x="50.46" y="17.52" width="13.4" height="21.62" transform="translate(114.33 56.66) rotate(180)"/><rect class="cls-1" x="78.94" y="4.24" width="13.4" height="82.32"/><rect class="cls-1" x="125.49" y="4.12" width="13.54" height="82.44"/><rect class="cls-1" x="102.21" y="76.69" width="13.4" height="33.15" transform="translate(15.65 202.18) rotate(-90)"/><rect class="cls-1" x="154" y="84.97" width="13.4" height="16.58" transform="translate(67.44 253.96) rotate(-90)"/><rect class="cls-1" x="170.57" y="71.57" width="13.4" height="16.58" transform="translate(97.41 257.14) rotate(-90)"/><rect class="cls-1" x="187.15" y="58.17" width="13.4" height="16.58" transform="translate(127.39 260.31) rotate(-90)"/><rect class="cls-1" x="154" y="29.46" width="13.4" height="16.58" transform="translate(122.95 198.45) rotate(-90)"/><rect class="cls-1" x="170.57" y="16.06" width="13.4" height="16.58" transform="translate(152.93 201.62) rotate(-90)"/><rect class="cls-1" x="187.15" y="2.66" width="13.4" height="16.58" transform="translate(182.91 204.8) rotate(-90)"/><rect class="cls-1" x="217.73" y="4.12" width="13.54" height="95.85"/><rect class="cls-1" x="263.44" y="4.12" width="13.54" height="95.85"/><rect class="cls-1" x="240.3" y="30.04" width="13.4" height="45" transform="translate(299.54 -194.46) rotate(90)"/><rect class="cls-1" x="295.36" y="17.52" width="13.54" height="82.44"/><rect class="cls-1" x="311.16" y="70.76" width="13.4" height="45" transform="translate(411.13 -224.6) rotate(90)"/><rect class="cls-1" x="317.93" y="-4.91" width="13.4" height="31.46" transform="translate(335.45 -313.81) rotate(90)"/><rect class="cls-1" x="303.3" y="37.41" width="13.4" height="29.27" transform="translate(362.04 -257.96) rotate(90)"/><rect class="cls-1" x="356.66" y="5.12" width="13.4" height="94.85"/><rect class="cls-1" x="372.46" y="-11.68" width="13.4" height="45" transform="translate(389.98 -368.34) rotate(90)"/><rect class="cls-1" x="372.46" y="23.34" width="13.4" height="45" transform="translate(425 -333.32) rotate(90)"/><rect class="cls-1" x="401.66" y="17.52" width="13.4" height="21.62" transform="translate(816.72 56.66) rotate(180)"/><rect class="cls-1" x="401.66" y="52.54" width="13.4" height="47.42" transform="translate(816.72 152.51) rotate(180)"/><rect class="cls-2" y="1" width="13.4" height="94.85"/><rect class="cls-2" x="15.8" y="-15.8" width="13.4" height="45" transform="translate(29.2 -15.8) rotate(90)"/><rect class="cls-2" x="15.8" y="19.22" width="13.4" height="45" transform="translate(64.22 19.22) rotate(90)"/><rect class="cls-2" x="45" y="13.4" width="13.4" height="21.62" transform="translate(103.4 48.42) rotate(180)"/><rect class="cls-2" x="73.47" y="0.13" width="13.4" height="82.32"/><rect class="cls-2" x="120.03" width="13.54" height="82.44"/><rect class="cls-2" x="96.75" y="72.57" width="13.4" height="33.15" transform="translate(14.31 192.6) rotate(-90)"/><rect class="cls-2" x="148.53" y="80.86" width="13.4" height="16.58" transform="translate(66.09 244.38) rotate(-90)"/><rect class="cls-2" x="165.11" y="67.45" width="13.4" height="16.58" transform="translate(96.07 247.55) rotate(-90)"/><rect class="cls-2" x="181.69" y="54.05" width="13.4" height="16.58" transform="translate(126.05 250.73) rotate(-90)"/><rect class="cls-2" x="148.53" y="25.34" width="13.4" height="16.58" transform="translate(121.6 188.86) rotate(-90)"/><rect class="cls-2" x="165.11" y="11.94" width="13.4" height="16.58" transform="translate(151.58 192.04) rotate(-90)"/><rect class="cls-2" x="181.69" y="-1.46" width="13.4" height="16.58" transform="translate(181.56 195.21) rotate(-90)"/><rect class="cls-2" x="212.26" width="13.54" height="95.85"/><rect class="cls-2" x="257.97" width="13.54" height="95.85"/><rect class="cls-2" x="234.83" y="25.92" width="13.4" height="45" transform="translate(289.96 -193.11) rotate(90)"/><rect class="cls-2" x="289.9" y="13.4" width="13.54" height="82.44"/><rect class="cls-2" x="305.7" y="66.64" width="13.4" height="45" transform="translate(401.54 -223.25) rotate(90)"/><rect class="cls-2" x="312.47" y="-9.03" width="13.4" height="31.46" transform="translate(325.87 -312.47) rotate(90)"/><rect class="cls-2" x="297.83" y="33.29" width="13.4" height="29.27" transform="translate(352.46 -256.61) rotate(90)"/><rect class="cls-2" x="351.19" y="1" width="13.4" height="94.85"/><rect class="cls-2" x="366.99" y="-15.8" width="13.4" height="45" transform="translate(380.39 -366.99) rotate(90)"/><rect class="cls-2" x="366.99" y="19.22" width="13.4" height="45" transform="translate(415.42 -331.97) rotate(90)"/><rect class="cls-2" x="396.19" y="13.4" width="13.4" height="21.62" transform="translate(805.79 48.42) rotate(180)"/><rect class="cls-2" x="396.19" y="48.42" width="13.4" height="47.42" transform="translate(805.79 144.27) rotate(180)"/><polyline class="cls-3" points="0 95.84 4.79 100.64 18.87 100.64 13.74 95.51"/><polyline class="cls-3" points="13.4 48.42 18.87 52.54 50.47 52.54 45 48.42"/><polyline class="cls-3" points="45 13.4 45 17.52 18.87 17.65 13.4 13.53"/><polyline class="cls-3" points="58.4 35.02 63.87 39.14 50.47 39.14 45 35.02"/><polyline class="cls-3" points="45 0 50.47 4.12 50.47 13.4 45 12.95"/><polyline class="cls-1" points="44.78 35.02 50.25 39.14 50.25 52.42 44.78 47.97"/><polyline class="cls-1" points="58.4 13.4 63.87 17.52 63.87 39.14 59.13 35.02"/><polyline class="cls-1" points="86.88 82.44 92.34 82.44 92.34 4.24 86.88 0.13"/><polyline class="cls-1" points="133.57 82.44 139.03 86.56 139.03 4.12 133.57 0"/><polyline class="cls-3" points="73.47 82.44 78.94 86.56 86.88 86.56 86.9 82.44"/><polyline class="cls-3" points="133.51 82.44 139.49 86.56 125.55 86.56 120.08 82.44"/><polyline class="cls-3" points="120.03 95.84 125.49 99.96 92.34 99.96 86.88 95.84"/><polyline class="cls-1" points="119.76 82.23 125.22 86.35 125.22 99.64 119.76 95.18"/><polygon class="cls-1" points="163.52 82.44 168.99 86.56 168.99 99.96 163.52 95.84 163.52 82.44"/><polygon class="cls-1" points="180.1 69.04 185.56 73.16 185.56 86.56 180.1 82.44 180.1 69.04"/><polygon class="cls-1" points="196.67 55.84 202.14 59.95 202.14 73.36 196.67 69.24 196.67 55.84"/><polygon class="cls-1" points="163.46 26.75 168.92 30.87 168.92 44.28 163.46 40.16 163.46 26.75"/><polygon class="cls-1" points="180.03 13.35 185.5 17.47 185.5 30.87 180.03 26.75 180.03 13.35"/><polygon class="cls-1" points="196.61 0.15 202.08 4.26 202.08 17.67 196.61 13.55 196.61 0.15"/><polyline class="cls-3" points="146.95 95.84 152.41 99.96 168.99 99.96 163.52 95.84"/><polyline class="cls-3" points="163.52 82.44 168.99 86.56 185.56 86.56 180.1 82.44"/><polyline class="cls-3" points="180.03 69.04 185.5 73.16 202.08 73.16 196.61 69.04"/><polyline class="cls-3" points="147.38 40.5 152.85 44.62 169.42 44.62 163.96 40.5"/><polyline class="cls-3" points="163.96 27.1 169.42 31.22 186 31.22 180.53 27.1"/><polyline class="cls-3" points="180.47 13.7 185.94 17.82 202.51 17.82 197.05 13.7"/><polyline class="cls-3" points="212.03 95.84 217.49 99.96 231.07 99.96 225.6 95.84"/><polyline class="cls-3" points="257.97 95.84 263.44 99.96 277.01 99.96 272.55 95.84"/><polyline class="cls-1" points="225.81 0 231.27 4.12 231.27 41.72 225.81 40.5"/><polyline class="cls-1" points="271.23 0.25 276.7 3.76 276.7 99.6 271.23 95.78"/><polygon class="cls-3" points="225.81 55.64 231.27 59.76 257.97 59.76 257.97 55.64 225.81 55.64"/><polyline class="cls-3" points="303.44 13.4 308.91 17.52 340.36 17.52 334.9 13.4"/><polyline class="cls-3" points="303.44 54.62 308.57 58.74 324.63 58.74 319.17 54.62"/><polyline class="cls-3" points="334.9 95.84 340.36 99.96 295.36 99.96 289.9 95.84"/><polyline class="cls-1" points="334.9 82.44 340.36 86.56 340.36 99.96 334.9 95.91"/><polyline class="cls-1" points="302.68 13.4 309.14 17.52 309.14 41.14 304.41 41.02"/><polygon class="cls-1" points="319.17 41.16 324.63 45.28 324.63 58.69 319.17 54.57 319.17 41.16"/><polygon class="cls-1" points="334.9 0.15 340.36 4.26 340.36 17.67 334.9 13.55 334.9 0.15"/><polygon class="cls-1" points="409.6 13.53 415.06 18.24 415.06 39.57 409.6 34.86 409.6 13.53"/><polygon class="cls-1" points="409.6 48.32 415.06 52.32 415.06 99.07 409.6 95.07 409.6 48.32"/><polygon class="cls-1" points="364.21 48.32 369.68 52.32 369.68 99.07 364.21 96.07 364.21 48.32"/><polyline class="cls-3" points="351.19 95.84 356.66 99.96 370.24 99.96 363.77 95.84"/><polyline class="cls-3" points="396.19 96.01 401.66 100.13 415.24 100.13 408.77 96.01"/><polygon class="cls-3" points="364.6 48.98 369.96 53.1 396.19 53.1 396.19 48.98 364.6 48.98"/><polygon class="cls-3" points="364.6 13.4 369.96 17.52 396.19 17.52 396.19 13.4 364.6 13.4"/><polyline class="cls-1" points="396.19 35.02 401.66 39.14 401.66 47.92 396.19 47.98"/><polyline class="cls-3" points="396.19 35.02 401.66 39.14 415.24 39.14 408.77 35.02"/><polyline class="cls-1" points="396.19 0.22 401.66 4.34 401.66 13.12 396.19 13.18"/></svg>